<svg xmlns="http://www.w3.org/2000/svg" viewBox="0 0 512 512" id="pumpjack">
  <path fill="#595f74" d="M16.5 315.176h50.2a9 9 0 0 1 9 9v139.428a9 9 0 0 1-9 9H7.5V324.176a9 9 0 0 1 9-9Z"></path>
  <path fill="#4a4f60" d="M66.7 315.176h-30a9 9 0 0 1 9 9v139.428a9 9 0 0 1-9 9h30a9 9 0 0 0 9-9V324.176a9 9 0 0 0-9-9Z"></path>
  <path fill="#595f74" d="M13.153 66.801h384.258v34.57H13.153a6 6 0 0 1-6-6v-22.57a6 6 0 0 1 6-6Z"></path>
  <path fill="#f66" d="M299.3 61.749v44.675a10.647 10.647 0 0 1-10.655 10.637h-128.94a10.647 10.647 0 0 1-10.657-10.637V61.75a10.647 10.647 0 0 1 10.656-10.637h128.94a10.647 10.647 0 0 1 10.657 10.637Z"></path>
  <path fill="#ff4e4e" d="M288.645 51.112h-30A10.647 10.647 0 0 1 269.3 61.749v44.675a10.647 10.647 0 0 1-10.656 10.637h30a10.647 10.647 0 0 0 10.656-10.637V61.75a10.647 10.647 0 0 0-10.656-10.637Z"></path>
  <path fill="#676e87" d="M504.22 23.39A15.962 15.962 0 0 0 488.18 7.5l-91.23.31a15.972 15.972 0 0 0-15.93 16.02l1.1 279.67 46.32-38.83A212.57 212.57 0 0 0 504.5 101Zm-79.07 194.86a15.955 15.955 0 1 1 15.98-15.95 15.97 15.97 0 0 1-15.98 15.95Zm17.61-64.13a19.07 19.07 0 1 1 19.1-19.07 19.086 19.086 0 0 1-19.1 19.07Zm0-70.05a22.335 22.335 0 1 1 22.38-22.33 22.357 22.357 0 0 1-22.38 22.33Z"></path>
  <path fill="#595f74" d="M504.22 23.39A15.962 15.962 0 0 0 488.18 7.5l-28.236.096A15.954 15.954 0 0 1 474.22 23.39l.28 77.61a212.57 212.57 0 0 1-76.06 163.67l-16.419 13.764.1 25.066 46.319-38.83A212.57 212.57 0 0 0 504.5 101zM285.98 51.112H162.369l13.425-36.63A10.655 10.655 0 0 1 185.801 7.5h76.747a10.655 10.655 0 0 1 10.007 6.982z"></path>
  <path fill="#4a4f60" d="M272.555 14.482A10.656 10.656 0 0 0 262.548 7.5h-30a10.656 10.656 0 0 1 10.007 6.982l13.425 36.63h30Z"></path>
  <path fill="#676e87" d="M498.106 472.589H13.894A6.388 6.388 0 0 0 7.5 478.97v19.147a6.388 6.388 0 0 0 6.394 6.382h484.212a6.388 6.388 0 0 0 6.394-6.382V478.97a6.388 6.388 0 0 0-6.394-6.382Z"></path>
  <path fill="#595f74" d="M498.106 472.589h-45a6.388 6.388 0 0 1 6.394 6.382v19.147a6.388 6.388 0 0 1-6.394 6.382h45a6.388 6.388 0 0 0 6.394-6.382V478.97a6.388 6.388 0 0 0-6.394-6.382Z"></path>
  <path fill="#676e87" d="M57.5 29.801h44a5 5 0 0 1 5 5v32h-54v-32a5 5 0 0 1 5-5Z"></path>
  <path fill="#595f74" d="M101.5 29.802H78.192a5 5 0 0 1 5 5v32H106.5v-32a5 5 0 0 0-5-5Z"></path>
  <path fill="#272a33" d="M442.758 108.484a26.566 26.566 0 1 0 26.6 26.567 26.614 26.614 0 0 0-26.6-26.567Zm0 38.133a11.566 11.566 0 1 1 11.6-11.566 11.597 11.597 0 0 1-11.6 11.566Zm-17.613 79.136a23.455 23.455 0 1 0-23.484-23.455 23.496 23.496 0 0 0 23.484 23.455Zm0-31.91a8.455 8.455 0 1 1-8.484 8.455 8.48 8.48 0 0 1 8.484-8.455Zm17.613-102.27a29.838 29.838 0 1 0-29.879-29.838 29.892 29.892 0 0 0 29.88 29.838Zm0-44.676a14.838 14.838 0 1 1-14.879 14.838 14.875 14.875 0 0 1 14.88-14.838Zm55.348 418.192H389.62V307.002l43.64-36.586A219.504 219.504 0 0 0 512 100.97l-.28-77.608A23.497 23.497 0 0 0 488.237 0h-.082L396.92.312a23.47 23.47 0 0 0-23.404 23.547l.14 35.44h-67.042a18.161 18.161 0 0 0-15.315-15.472l-11.7-31.936A18.23 18.23 0 0 0 262.55 0H185.8a18.23 18.23 0 0 0-17.051 11.9L157.05 43.826A18.156 18.156 0 0 0 141.735 59.3H114V34.802a12.514 12.514 0 0 0-12.5-12.5h-44a12.514 12.514 0 0 0-12.5 12.5V59.3H13.15A13.515 13.515 0 0 0-.35 72.8v22.57a13.515 13.515 0 0 0 13.5 13.5h20.77v198.806H16.5a16.52 16.52 0 0 0-16.5 16.5v138.427a17.373 17.373 0 0 0 2.33 8.688A13.789 13.789 0 0 0 0 478.97v19.147A13.903 13.903 0 0 0 13.893 512h484.213A13.903 13.903 0 0 0 512 498.118v-19.147a13.903 13.903 0 0 0-13.894-13.882ZM390.974 17.815a8.443 8.443 0 0 1 5.997-2.503L488.206 15h.03a8.48 8.48 0 0 1 8.483 8.42l.28 77.606a204.548 204.548 0 0 1-73.375 157.896l-34.068 28.56-.87-220.605c0-.026.004-.051.004-.077 0-.031-.004-.06-.005-.091l-.169-42.908a8.388 8.388 0 0 1 2.458-5.986ZM306.8 74.3h66.916l.078 19.57h-66.994Zm-.185 34.57h67.238l.768 194.662v161.557H350.2l-53.917-342.237a18.164 18.164 0 0 0 10.33-13.982Zm-19.019 158.488-64.087 48.44-64.088-48.44Zm-131.637-15 67.908-63.971 67.312 63.971Zm152.516 146.465H138.541l84.967-64.221ZM235.946 325.2l68.834-52.028 18.61 118.122Zm-1.144-147.114 47.89-45.114 16.792 106.587Zm-10.89-10.35-45.43-43.176h91.264Zm-10.935 10.302-65.476 61.68 16.975-107.774ZM211.07 325.2l-87.44 66.091 18.604-118.12Zm115.87 88.623 8.077 51.266H112.005l8.074-51.266ZM182.829 17.067A3.172 3.172 0 0 1 185.8 15h76.75a3.173 3.173 0 0 1 2.97 2.06l9.726 26.55h-102.14ZM156.55 61.75a3.148 3.148 0 0 1 3.15-3.14h126.257l.025.002.045-.002h2.614a3.153 3.153 0 0 1 3.16 3.14v44.67a3.154 3.154 0 0 1-3.16 3.14H159.618l-.057-.004a3.139 3.139 0 0 1-3.012-3.136Zm-5.729 60.49-54 342.849H83.003a17.457 17.457 0 0 0 .198-2.486V324.176a16.519 16.519 0 0 0-16.5-16.5H48.92V108.87h92.813a18.08 18.08 0 0 0 9.087 13.37ZM60 37.302h39V59.3H60ZM14.65 93.87V74.3H52.46l.039.002.038-.002h53.923l.039.002.038-.002h35.011v19.57ZM15 324.176a1.502 1.502 0 0 1 1.5-1.5h50.2a1.502 1.502 0 0 1 1.5 1.5v138.427a2.496 2.496 0 0 1-2.355 2.486h-48.49A2.496 2.496 0 0 1 15 462.603ZM497 497H15v-16.911h2.21c.098.001.192.014.29.014h48.2c.097 0 .192-.013.289-.014h37.101c.05 0 .1.011.149.011.087 0 .172-.008.259-.011h240.24l.043.002.025-.002H497Z"></path>
</svg>
