<svg xmlns="http://www.w3.org/2000/svg" viewBox="0 0 512 512" id="refinery">
  <path fill="#676e87" d="M112.5 276.927h104v170.74h-104z"></path>
  <path fill="#595f74" d="M186.5 276.927h30v170.74h-30z"></path>
  <path fill="#676e87" d="M370.5 276.927h104v170.74h-104z"></path>
  <path fill="#595f74" d="M444.5 276.927h30v170.74h-30z"></path>
  <path fill="#4a4f60" d="M483.23 276.927H103.77a10 10 0 0 1-9.001-5.645L82.5 245.927h422l-12.269 25.355a10 10 0 0 1-9.001 5.645Z"></path>
  <path fill="#3b3f4d" d="m459.5 245.927-12.269 25.355a10 10 0 0 1-9.001 5.645h45a10 10 0 0 0 9.001-5.645l12.269-25.355Z"></path>
  <path fill="#676e87" d="M489.5 245.927h-392v-21a10 10 0 0 1 10-10h372a10 10 0 0 1 10 10Z"></path>
  <path fill="#595f74" d="M479.5 214.927h-45a10 10 0 0 1 10 10v21h45v-21a10 10 0 0 0-10-10Z"></path>
  <path fill="#4a4f60" d="M370.5 324.427h104v38.999h-104z"></path>
  <path fill="#3b3f4d" d="M444.5 324.427h30v38.999h-30z"></path>
  <path fill="#4a4f60" d="M112.5 324.427h104v38.999h-104z"></path>
  <path fill="#3b3f4d" d="M186.5 324.427h30v38.999h-30z"></path>
  <rect width="100" height="30" x="341" y="7.497" fill="#f66" rx="8"></rect>
  <path fill="#ff4e4e" d="M433 7.497h-30a7.998 7.998 0 0 1 8 8v14a7.998 7.998 0 0 1-8 8h30a7.998 7.998 0 0 0 8-8v-14a7.998 7.998 0 0 0-8-8Z"></path>
  <rect width="124.737" height="30" x="328.632" y="112.5" fill="#f66" rx="8"></rect>
  <path fill="#ff4e4e" d="M445.368 112.5h-30a8 8 0 0 1 8 8v14a8 8 0 0 1-8 8h30a8 8 0 0 0 8-8v-14a8 8 0 0 0-8-8Z"></path>
  <path fill="#4a4f60" d="M111.5 163.927h136v51h-140v-47a4 4 0 0 1 4-4Z"></path>
  <path fill="#f66" d="M301.476 214.927h-75.952V164.18l15-29.181-15-11.556v-8.507A37.976 37.976 0 0 1 263.5 76.96a37.976 37.976 0 0 1 37.976 37.976v8.507l-15 19.056 15 21.681Z"></path>
  <path fill="#ff4e4e" d="M301.476 114.937A37.976 37.976 0 0 0 263.5 76.96a37.844 37.844 0 0 0-15 3.083 37.982 37.982 0 0 1 22.976 34.893v8.507l-15 19.056 15 21.681v50.746h30V164.18l-15-21.681 15-19.056Z"></path>
  <path fill="#f7f7f7" d="M225.656 123.444h75.82v40.738h-75.82z"></path>
  <path fill="#eee" d="M271.476 123.444h30v40.738h-30z"></path>
  <path fill="#66c1ff" d="M512 414.39V512H0v-97.61c31.06 0 38.56 18 69.62 18s31.06-18 62.13-18c31.06 0 31.06 18 62.12 18s31.06-18 62.12-18 31.06 18 62.13 18c31.06 0 31.06-18 62.12-18 31.07 0 31.07 18 62.13 18 31.07 0 38.57-18 69.63-18Z"></path>
  <path fill="#4eb7ff" d="M512 474.39V512H0v-37.61c31.06 0 38.56 18 69.62 18s31.06-18 62.13-18c31.06 0 31.06 18 62.12 18s31.06-18 62.12-18 31.06 18 62.13 18c31.06 0 31.06-18 62.12-18 31.07 0 31.07 18 62.13 18 31.07 0 38.57-18 69.63-18Z"></path>
  <path fill="#272a33" d="M504.5 472.927c-17.549 0-26.727 5.318-34.825 10.01-7.399 4.288-13.788 7.99-27.304 7.99s-19.906-3.702-27.305-7.99c-8.098-4.692-17.276-10.01-34.824-10.01s-26.726 5.318-34.824 10.01c-7.398 4.288-13.787 7.99-27.303 7.99-13.515 0-19.904-3.702-27.301-7.99-8.098-4.692-17.276-10.01-34.823-10.01s-26.724 5.318-34.821 10.01c-7.397 4.288-13.786 7.99-27.3 7.99-13.515 0-19.904-3.702-27.302-7.99-8.097-4.692-17.275-10.01-34.822-10.01-17.547 0-26.725 5.318-34.823 10.01-7.398 4.288-13.786 7.99-27.301 7.99-13.514 0-19.903-3.702-27.301-7.99-8.097-4.692-17.275-10.01-34.821-10.01a7.5 7.5 0 0 0 0 15c13.514 0 19.903 3.702 27.3 7.989 8.098 4.692 17.275 10.01 34.822 10.01s26.724-5.318 34.822-10.01c7.398-4.287 13.787-7.99 27.302-7.99 13.515 0 19.903 3.703 27.301 7.99 8.098 4.692 17.276 10.01 34.823 10.01 17.546 0 26.724-5.318 34.821-10.01 7.397-4.287 13.786-7.99 27.3-7.99 13.515 0 19.904 3.703 27.302 7.99 8.097 4.692 17.275 10.01 34.822 10.01 17.548 0 26.726-5.318 34.824-10.01 7.398-4.287 13.787-7.99 27.303-7.99s19.906 3.703 27.304 7.99c8.098 4.692 17.276 10.01 34.825 10.01s26.726-5.318 34.824-10.01c7.399-4.287 13.788-7.99 27.305-7.99a7.5 7.5 0 0 0 0-15Zm-497-99.5h37a7.5 7.5 0 1 0 0-15h-11V50.53l93.224 105.896H107.5a7.5 7.5 0 0 0-7.5 7.5v45.212a17.505 17.505 0 0 0-10 15.788v13.5h-7.5a7.5 7.5 0 0 0-6.751 10.766l12.268 25.355a17.598 17.598 0 0 0 15.753 9.879H105v137.5a7.5 7.5 0 0 0 15 0v-51h89v57.507a7.5 7.5 0 0 0 15 0V284.427h139v130.541a7.5 7.5 0 1 0 15 0v-44.041h89v55a7.5 7.5 0 1 0 15 0v-141.5h1.229a17.598 17.598 0 0 0 15.752-9.878l12.27-25.356a7.5 7.5 0 0 0-6.752-10.766H497v-13.5a17.52 17.52 0 0 0-17.5-17.5h-24.506l-8.32-57.493a15.513 15.513 0 0 0 14.195-15.434v-14a15.517 15.517 0 0 0-15.5-15.5h-5.185l-8.68-60H433a15.517 15.517 0 0 0 15.5-15.5v-14A15.517 15.517 0 0 0 433 0h-14.442c-.02 0-.039-.003-.058-.003h-55c-.02 0-.039.003-.058.003H349a15.517 15.517 0 0 0-15.5 15.5v14A15.517 15.517 0 0 0 349 45h1.496l-8.68 60h-5.185a15.517 15.517 0 0 0-15.5 15.5v14a15.513 15.513 0 0 0 14.194 15.434l-8.319 57.493h-18.03v-92.49a45.476 45.476 0 0 0-90.953 0v32.66L50.411 1.837 50.4 1.83a7.392 7.392 0 0 0-.442-.348c-.047-.035-.092-.074-.14-.108-.121-.086-.249-.163-.375-.241-.08-.05-.159-.104-.24-.15-.105-.06-.214-.111-.321-.166-.106-.054-.21-.111-.319-.16-.106-.048-.216-.087-.324-.13-.111-.043-.221-.09-.334-.129-.121-.041-.246-.074-.37-.109-.101-.029-.201-.06-.303-.085-.137-.032-.275-.056-.414-.08-.092-.017-.183-.037-.276-.05-.138-.02-.278-.03-.418-.042-.098-.009-.195-.019-.293-.023-.127-.006-.254-.005-.382-.004-.118 0-.235.002-.352.008a7.757 7.757 0 0 0-.318.026 7.517 7.517 0 0 0-.675.095 7.462 7.462 0 0 0-.55.125c-.027.008-.055.011-.083.02-.02.005-.04.013-.06.02-.2.057-.397.124-.592.198l-.116.043a7.43 7.43 0 0 0-.564.255c-.038.019-.076.036-.114.056a7.34 7.34 0 0 0-.513.297c-.042.026-.085.05-.126.076-.154.101-.303.212-.451.325-.047.036-.097.07-.143.108a7.495 7.495 0 0 0-.394.346c-.05.047-.103.09-.152.139-.025.024-.051.044-.076.069L19.02 23.49a7.494 7.494 0 0 0-.52 9.978v324.959h-11a7.5 7.5 0 0 0 0 15Zm201.5-17.5h-89v-24h89Zm0-39h-89v-32.5h89Zm258 39h-89v-24h89Zm0-39h-89v-32.5h89Zm25.539-63.5-7.06 14.59a2.514 2.514 0 0 1-2.25 1.41H103.77a2.514 2.514 0 0 1-2.25-1.411l-7.06-14.59ZM348.999 30a.5.5 0 0 1-.5-.5v-14a.5.5 0 0 1 .5-.5h84a.5.5 0 0 1 .5.5v14a.5.5 0 0 1-.5.5Zm31.474 39.589-21.518 21.71 5.476-37.855Zm-3.287-24.59h27.66l-13.813 13.936Zm13.86 35.23 24.614 24.77h-49.167Zm10.56-10.654 15.966-16.108 5.447 37.658ZM336.13 120.5a.5.5 0 0 1 .5-.5h108.737a.5.5 0 0 1 .5.5v14a.5.5 0 0 1-.5.5H336.63a.5.5 0 0 1-.5-.5Zm41.7 54.584L343.39 198.95l6.276-43.38ZM367.967 150h46.065L391 165.96ZM391 184.209l33.507 23.218h-67.015Zm13.168-9.125 28.165-19.515 6.276 43.38Zm-171.145-60.148a30.476 30.476 0 0 1 60.953 0v1.007h-60.953Zm0 16.007h60.953v25.739h-60.953Zm0 40.739h60.953v35.745h-60.953Zm100.47 50.745H479.5a2.503 2.503 0 0 1 2.5 2.5v13.5H105v-13.5a2.503 2.503 0 0 1 2.5-2.5Zm-128.177-66H161.83l20.16-20.284Zm-34.668-30.149-21.13 21.259-4.056-43.161Zm-28.87 45.186.064.015q.319.075.646.121l.058.008c.212.029.426.048.643.058l.086.004c.088.003.175.013.265.013.112 0 .225-.011.338-.017l.14-.006c.077-.005.154-.004.232-.012h.005c.108-.01.215-.03.323-.046l.17-.024c.084-.014.17-.022.253-.039.062-.012.12-.03.18-.044.034-.007.068-.017.102-.025.06-.014.118-.027.176-.043h72.564v36H115v-36h26.628c.05.011.1.025.15.037Zm-7.857-29.57-19.842-22.537 16.194-16.292Zm-29.776-33.82-20.37-23.136 36.993 6.412Zm6.894-33.633-31.486-5.458 11.688-11.76ZM79.897 47.358 67.833 59.496l-8.37-29.909Zm-38.16-25.447 6.27 22.401L34.603 29.09ZM7.5 427.927c13.514 0 19.903 3.702 27.3 7.989 8.097 4.692 17.275 10.01 34.822 10.01s26.724-5.318 34.822-10.01c7.398-4.287 13.787-7.99 27.302-7.99 13.515 0 19.903 3.703 27.301 7.99 8.098 4.692 17.276 10.01 34.823 10.01 17.546 0 26.724-5.318 34.821-10.01 7.397-4.287 13.786-7.99 27.3-7.99 13.515 0 19.904 3.703 27.302 7.99 8.097 4.692 17.275 10.01 34.822 10.01 17.548 0 26.726-5.318 34.824-10.01 7.398-4.287 13.787-7.99 27.303-7.99s19.905 3.703 27.304 7.99c8.098 4.692 17.276 10.01 34.825 10.01s26.726-5.318 34.824-10.01c7.399-4.287 13.788-7.99 27.305-7.99a7.5 7.5 0 0 0 0-15c-17.549 0-26.727 5.319-34.825 10.011-7.399 4.288-13.788 7.99-27.304 7.99s-19.906-3.702-27.305-7.99c-8.098-4.692-17.276-10.01-34.824-10.01s-26.726 5.318-34.824 10.01c-7.398 4.288-13.787 7.99-27.303 7.99-13.515 0-19.904-3.702-27.301-7.99-8.098-4.692-17.276-10.01-34.823-10.01s-26.724 5.318-34.821 10.01c-7.397 4.288-13.786 7.99-27.3 7.99-13.515 0-19.904-3.702-27.302-7.99-8.097-4.692-17.275-10.01-34.822-10.01-17.547 0-26.725 5.318-34.823 10.01-7.398 4.288-13.786 7.99-27.301 7.99-13.514 0-19.903-3.702-27.301-7.99-8.097-4.692-17.275-10.01-34.821-10.01a7.5 7.5 0 0 0 0 15Z"></path>
</svg>
